<?xml version="1.0" encoding="utf-8"?>
<!-- Generator: Adobe Illustrator 25.0.1, SVG Export Plug-In . SVG Version: 6.00 Build 0)  -->
<svg version="1.1" id="图层_1" xmlns="http://www.w3.org/2000/svg" xmlns:xlink="http://www.w3.org/1999/xlink" x="0px" y="0px"
	 viewBox="0 0 1180 374.9" style="enable-background:new 0 0 1180 374.9;" xml:space="preserve">
<style type="text/css">
	.st0{fill:#F7F6F8;}
	.st1{opacity:0.26;}
	.st2{fill:url(#XMLID_6_);}
	.st3{fill:url(#XMLID_7_);}
	.st4{fill:#1E58A6;}
	.st5{fill:url(#XMLID_8_);}
	.st6{fill:url(#XMLID_15_);}
	.st7{fill:#0070C4;}
	.st8{fill:url(#XMLID_16_);}
	.st9{fill:url(#XMLID_17_);}
	.st10{fill:#028ECC;}
	.st11{fill:url(#XMLID_18_);}
	.st12{fill:url(#XMLID_19_);}
	.st13{fill:#595757;}
	.st14{fill:url(#XMLID_20_);}
	.st15{fill:url(#XMLID_23_);}
	.st16{fill:#717071;}
	.st17{fill:#231815;}
	.st18{font-family:'Helvetica-Bold';}
	.st19{font-size:16px;}
	.st20{fill:#FFFFFF;}
	.st21{font-family:'HelveticaNeueLTPro-Roman';}
	.st22{font-size:13px;}
	.st23{fill:url(#XMLID_24_);}
	.st24{fill:url(#XMLID_25_);}
	.st25{fill:#FFF100;}
	.st26{fill:#898989;}
	.st27{font-size:24px;}
</style>
<rect y="0" class="st0" width="1180" height="374.9"/>
<g class="st1">
	
		<radialGradient id="XMLID_6_" cx="938.0519" cy="239.8082" r="21.2139" gradientTransform="matrix(1 0 0 -1.2276 0 453.5886)" gradientUnits="userSpaceOnUse">
		<stop  offset="0" style="stop-color:#1D1819"/>
		<stop  offset="0.1055" style="stop-color:#423E3F"/>
		<stop  offset="0.2832" style="stop-color:#7B7879"/>
		<stop  offset="0.4552" style="stop-color:#AAA8A9"/>
		<stop  offset="0.6171" style="stop-color:#CFCECE"/>
		<stop  offset="0.7663" style="stop-color:#E9E9E9"/>
		<stop  offset="0.8986" style="stop-color:#F9F9F9"/>
		<stop  offset="1" style="stop-color:#FFFFFF"/>
	</radialGradient>
	<ellipse id="XMLID_14_" class="st2" cx="938.1" cy="159.2" rx="21.2" ry="26"/>
	
		<radialGradient id="XMLID_7_" cx="938.1" cy="242.1705" r="24.5749" gradientTransform="matrix(1 0 0 -1.2276 0 453.5886)" gradientUnits="userSpaceOnUse">
		<stop  offset="0" style="stop-color:#1D1819"/>
		<stop  offset="9.398580e-02" style="stop-color:#393536"/>
		<stop  offset="0.343" style="stop-color:#7F7C7C"/>
		<stop  offset="0.5671" style="stop-color:#B6B4B5"/>
		<stop  offset="0.7581" style="stop-color:#DEDDDD"/>
		<stop  offset="0.9086" style="stop-color:#F6F6F6"/>
		<stop  offset="1" style="stop-color:#FFFFFF"/>
	</radialGradient>
	<ellipse id="XMLID_13_" class="st3" cx="938.1" cy="156.3" rx="24.6" ry="30.2"/>
</g>
<polygon class="st4" points="923,193.8 694.3,193.8 694.3,118.9 923,118.9 947.7,156.3 "/>
<g class="st1">
	
		<radialGradient id="XMLID_8_" cx="708.3" cy="239.8082" r="21.1898" gradientTransform="matrix(1 0 0 -1.2276 0 453.5886)" gradientUnits="userSpaceOnUse">
		<stop  offset="0" style="stop-color:#1D1819"/>
		<stop  offset="0.1055" style="stop-color:#423E3F"/>
		<stop  offset="0.2832" style="stop-color:#7B7879"/>
		<stop  offset="0.4552" style="stop-color:#AAA8A9"/>
		<stop  offset="0.6171" style="stop-color:#CFCECE"/>
		<stop  offset="0.7663" style="stop-color:#E9E9E9"/>
		<stop  offset="0.8986" style="stop-color:#F9F9F9"/>
		<stop  offset="1" style="stop-color:#FFFFFF"/>
	</radialGradient>
	<ellipse id="XMLID_4_" class="st5" cx="708.3" cy="159.2" rx="21.2" ry="26"/>
	
		<radialGradient id="XMLID_15_" cx="708.3" cy="242.1705" r="24.6004" gradientTransform="matrix(1 0 0 -1.2276 0 453.5886)" gradientUnits="userSpaceOnUse">
		<stop  offset="0" style="stop-color:#1D1819"/>
		<stop  offset="9.398580e-02" style="stop-color:#393536"/>
		<stop  offset="0.343" style="stop-color:#7F7C7C"/>
		<stop  offset="0.5671" style="stop-color:#B6B4B5"/>
		<stop  offset="0.7581" style="stop-color:#DEDDDD"/>
		<stop  offset="0.9086" style="stop-color:#F6F6F6"/>
		<stop  offset="1" style="stop-color:#FFFFFF"/>
	</radialGradient>
	<ellipse id="XMLID_3_" class="st6" cx="708.3" cy="156.3" rx="24.6" ry="30.2"/>
</g>
<polygon class="st7" points="693.2,193.8 464.5,193.8 464.5,118.9 693.2,118.9 717.9,156.3 "/>
<g class="st1">
	
		<radialGradient id="XMLID_16_" cx="485" cy="239.8082" r="21.1898" gradientTransform="matrix(1 0 0 -1.2276 0 453.5886)" gradientUnits="userSpaceOnUse">
		<stop  offset="0" style="stop-color:#1D1819"/>
		<stop  offset="0.1055" style="stop-color:#423E3F"/>
		<stop  offset="0.2832" style="stop-color:#7B7879"/>
		<stop  offset="0.4552" style="stop-color:#AAA8A9"/>
		<stop  offset="0.6171" style="stop-color:#CFCECE"/>
		<stop  offset="0.7663" style="stop-color:#E9E9E9"/>
		<stop  offset="0.8986" style="stop-color:#F9F9F9"/>
		<stop  offset="1" style="stop-color:#FFFFFF"/>
	</radialGradient>
	<ellipse id="XMLID_2_" class="st8" cx="485" cy="159.2" rx="21.2" ry="26"/>
	
		<radialGradient id="XMLID_17_" cx="485" cy="242.1705" r="24.6004" gradientTransform="matrix(1 0 0 -1.2276 0 453.5886)" gradientUnits="userSpaceOnUse">
		<stop  offset="0" style="stop-color:#1D1819"/>
		<stop  offset="9.398580e-02" style="stop-color:#393536"/>
		<stop  offset="0.343" style="stop-color:#7F7C7C"/>
		<stop  offset="0.5671" style="stop-color:#B6B4B5"/>
		<stop  offset="0.7581" style="stop-color:#DEDDDD"/>
		<stop  offset="0.9086" style="stop-color:#F6F6F6"/>
		<stop  offset="1" style="stop-color:#FFFFFF"/>
	</radialGradient>
	<ellipse id="XMLID_1_" class="st9" cx="485" cy="156.3" rx="24.6" ry="30.2"/>
</g>
<polygon class="st10" points="469.9,193.8 241.3,193.8 241.3,118.9 469.9,118.9 494.7,156.3 "/>
<g class="st1">
	
		<radialGradient id="XMLID_18_" cx="938.0519" cy="61.7897" r="21.2241" gradientTransform="matrix(1 0 0 -1 0 351.8898)" gradientUnits="userSpaceOnUse">
		<stop  offset="0" style="stop-color:#1D1819"/>
		<stop  offset="0.1055" style="stop-color:#423E3F"/>
		<stop  offset="0.2832" style="stop-color:#7B7879"/>
		<stop  offset="0.4552" style="stop-color:#AAA8A9"/>
		<stop  offset="0.6171" style="stop-color:#CFCECE"/>
		<stop  offset="0.7663" style="stop-color:#E9E9E9"/>
		<stop  offset="0.8986" style="stop-color:#F9F9F9"/>
		<stop  offset="1" style="stop-color:#FFFFFF"/>
	</radialGradient>
	<circle id="XMLID_12_" class="st11" cx="938.1" cy="290.1" r="21.2"/>
	
		<radialGradient id="XMLID_19_" cx="938.1" cy="64.0898" r="24.6" gradientTransform="matrix(1 0 0 -1 0 351.8898)" gradientUnits="userSpaceOnUse">
		<stop  offset="0" style="stop-color:#1D1819"/>
		<stop  offset="9.398580e-02" style="stop-color:#393536"/>
		<stop  offset="0.343" style="stop-color:#7F7C7C"/>
		<stop  offset="0.5671" style="stop-color:#B6B4B5"/>
		<stop  offset="0.7581" style="stop-color:#DEDDDD"/>
		<stop  offset="0.9086" style="stop-color:#F6F6F6"/>
		<stop  offset="1" style="stop-color:#FFFFFF"/>
	</radialGradient>
	<circle id="XMLID_11_" class="st12" cx="938.1" cy="287.8" r="24.6"/>
</g>
<polygon class="st13" points="923,311.2 694.3,311.2 694.3,261.7 923,261.7 947.7,286.4 "/>
<g class="st1">
	
		<radialGradient id="XMLID_20_" cx="708.3" cy="61.7897" r="21.2" gradientTransform="matrix(1 0 0 -1 0 351.8898)" gradientUnits="userSpaceOnUse">
		<stop  offset="0" style="stop-color:#1D1819"/>
		<stop  offset="0.1055" style="stop-color:#423E3F"/>
		<stop  offset="0.2832" style="stop-color:#7B7879"/>
		<stop  offset="0.4552" style="stop-color:#AAA8A9"/>
		<stop  offset="0.6171" style="stop-color:#CFCECE"/>
		<stop  offset="0.7663" style="stop-color:#E9E9E9"/>
		<stop  offset="0.8986" style="stop-color:#F9F9F9"/>
		<stop  offset="1" style="stop-color:#FFFFFF"/>
	</radialGradient>
	<circle id="XMLID_10_" class="st14" cx="708.3" cy="290.1" r="21.2"/>
	
		<radialGradient id="XMLID_23_" cx="708.3" cy="64.0898" r="24.6373" gradientTransform="matrix(1 0 0 -1 0 351.8898)" gradientUnits="userSpaceOnUse">
		<stop  offset="0" style="stop-color:#1D1819"/>
		<stop  offset="9.398580e-02" style="stop-color:#393536"/>
		<stop  offset="0.343" style="stop-color:#7F7C7C"/>
		<stop  offset="0.5671" style="stop-color:#B6B4B5"/>
		<stop  offset="0.7581" style="stop-color:#DEDDDD"/>
		<stop  offset="0.9086" style="stop-color:#F6F6F6"/>
		<stop  offset="1" style="stop-color:#FFFFFF"/>
	</radialGradient>
	<circle id="XMLID_9_" class="st15" cx="708.3" cy="287.8" r="24.6"/>
</g>
<polygon class="st16" points="693.2,311.2 464.5,311.2 464.5,261.7 693.2,261.7 717.9,286.4 "/>
<g>
	<text transform="matrix(1.0463 0 0 1 82.7529 281.1696)" class="st17 st18 st19">Traditional </text>
	<text transform="matrix(1.0463 0 0 1 82.7529 300.8698)" class="st17 st18 st19">Manufacturing</text>
</g>
<g>
	<text transform="matrix(1.0463 0 0 1 82.7529 147.4601)" class="st4 st18 st19">On-demand </text>
	<text transform="matrix(1.0463 0 0 1 82.7529 167.1603)" class="st4 st18 st19">Manufacturing</text>
</g>
<g>
	<text transform="matrix(1 0 0 1 765.8543 283.7166)" class="st20 st21 st22">Production Tooling</text>
	<text transform="matrix(1 0 0 1 793.4543 300.5166)" class="st20 st21 st22">16 weeks</text>
</g>
<g class="st1">
	
		<radialGradient id="XMLID_24_" cx="485" cy="61.7897" r="21.2" gradientTransform="matrix(1 0 0 -1 0 351.8898)" gradientUnits="userSpaceOnUse">
		<stop  offset="0" style="stop-color:#1D1819"/>
		<stop  offset="0.1055" style="stop-color:#423E3F"/>
		<stop  offset="0.2832" style="stop-color:#7B7879"/>
		<stop  offset="0.4552" style="stop-color:#AAA8A9"/>
		<stop  offset="0.6171" style="stop-color:#CFCECE"/>
		<stop  offset="0.7663" style="stop-color:#E9E9E9"/>
		<stop  offset="0.8986" style="stop-color:#F9F9F9"/>
		<stop  offset="1" style="stop-color:#FFFFFF"/>
	</radialGradient>
	<circle id="XMLID_22_" class="st23" cx="485" cy="290.1" r="21.2"/>
	
		<radialGradient id="XMLID_25_" cx="485" cy="64.0898" r="24.6529" gradientTransform="matrix(1 0 0 -1 0 351.8898)" gradientUnits="userSpaceOnUse">
		<stop  offset="0" style="stop-color:#1D1819"/>
		<stop  offset="9.398580e-02" style="stop-color:#393536"/>
		<stop  offset="0.343" style="stop-color:#7F7C7C"/>
		<stop  offset="0.5671" style="stop-color:#B6B4B5"/>
		<stop  offset="0.7581" style="stop-color:#DEDDDD"/>
		<stop  offset="0.9086" style="stop-color:#F6F6F6"/>
		<stop  offset="1" style="stop-color:#FFFFFF"/>
	</radialGradient>
	<circle id="XMLID_21_" class="st24" cx="485" cy="287.8" r="24.6"/>
</g>
<g>
	<text transform="matrix(1 0 0 1 283.9277 332.0067)" class="st17 st21 st22">CNC Machining / 3D Printing</text>
</g>
<g>
	<text transform="matrix(1 0 0 1 498.2987 332.0067)" class="st17 st21 st22">Injection Molding (Steel Tooling)</text>
</g>
<g>
	<text transform="matrix(1 0 0 1 771.1453 332.0067)" class="st17 st21 st22">Injection Molding</text>
</g>
<g>
	<text transform="matrix(1 0 0 1 550.902 283.7166)" class="st20 st21 st22">Rapid Tooling</text>
	<text transform="matrix(1 0 0 1 563.702 300.5166)" class="st20 st21 st22">16 weeks</text>
</g>
<text transform="matrix(1.0463 0 0 1 962.1787 279.6217)" class="st17 st18 st19">Time to Market</text>
<g>
	<text transform="matrix(1.0463 0 0 1 984.4648 299.3219)" class="st17 st18 st19">40 weeks</text>
</g>
<text transform="matrix(1 0 0 1 765.8543 150.2462)" class="st20 st21 st22">Production Tooling</text>
<g>
	<text transform="matrix(1.0463 0 0 1 795.0543 169.0462)" class="st25 st18 st19">6</text>
</g>
<text transform="matrix(1 0 0 1 804.2543 167.0462)" class="st20 st21 st22"> weeks</text>
<g>
	<text transform="matrix(1 0 0 1 262.9716 216.5363)" class="st17 st21 st22">CNC Machining / Vacuum Casting   </text>
	<text transform="matrix(1 0 0 1 335.6716 233.3363)" class="st17 st21 st22">3D Printing</text>
</g>
<g>
	<text transform="matrix(1 0 0 1 483.9532 216.5363)" class="st17 st21 st22">Injection Molding (Aluminum Tooling)</text>
</g>
<g>
	<text transform="matrix(1 0 0 1 771.1453 216.5363)" class="st17 st21 st22">Injection Molding</text>
</g>
<text transform="matrix(1 0 0 1 550.902 150.2462)" class="st20 st21 st22">Rapid Tooling</text>
<g>
	<text transform="matrix(1.0463 0 0 1 565.302 169.0462)" class="st25 st18 st19">3</text>
</g>
<text transform="matrix(1 0 0 1 574.502 167.0462)" class="st20 st21 st22"> weeks</text>
<text transform="matrix(1.0463 0 0 1 962.1787 149.5187)" class="st17 st18 st19">Time to Market</text>
<text transform="matrix(1.0463 0 0 1 984.4648 169.2184)" class="st4 st18 st19">11 weeks</text>
<polygon class="st26" points="469.9,311.2 241.3,311.2 241.3,261.7 469.9,261.7 494.7,286.4 "/>
<g>
	<text transform="matrix(1 0 0 1 315.2314 283.7166)" class="st20 st21 st22">Rapid Prototyping</text>
	<text transform="matrix(1 0 0 1 344.0314 300.5166)" class="st20 st21 st22">8 weeks</text>
</g>
<g>
	<text transform="matrix(1.0463 0 0 1 82.7529 49.8092)" class="st17 st18 st27">Comparing Development Timelines: </text>
	<text transform="matrix(1.0463 0 0 1 82.7529 85.8092)" class="st17 st18 st27">On-Demand Manufacturing vs. Traditional Manufacturing</text>
</g>
<text transform="matrix(1 0 0 1 315.2312 150.2462)" class="st20 st21 st22">Rapid Prototyping</text>
<g>
	<text transform="matrix(1.0463 0 0 1 342.0312 169.0462)" class="st25 st18 st19">2</text>
</g>
<text transform="matrix(1 0 0 1 351.2312 167.0462)" class="st20 st21 st22"> weeks</text>
</svg>
