<?xml version="1.0" encoding="utf-8"?>
<!-- Generator: Adobe Illustrator 25.0.1, SVG Export Plug-In . SVG Version: 6.00 Build 0)  -->
<svg version="1.1" id="图层_1" xmlns="http://www.w3.org/2000/svg" xmlns:xlink="http://www.w3.org/1999/xlink" x="0px" y="0px"
	 viewBox="0 0 1180 248.3" style="enable-background:new 0 0 1180 248.3;" xml:space="preserve">
<style type="text/css">
	.st0{fill:#1E58A6;}
	.st1{fill:#DAECF7;}
	.st2{fill:#FFFFFF;}
	.st3{font-family:'Arial-BoldMT';}
	.st4{font-size:16px;}
	.st5{font-family:'ArialMT';}
	.st6{fill:none;stroke:#1E58A6;stroke-width:0.5;stroke-miterlimit:10;}
</style>
<rect y="0" class="st0" width="1180" height="40.9"/>
<rect y="83.7" class="st1" width="1180" height="40.9"/>
<rect y="166.3" class="st1" width="1180" height="40.9"/>
<text transform="matrix(1 0 0 1 123.8181 24.2963)" class="st2 st3 st4">Feature</text>
<text transform="matrix(1 0 0 1 123.8181 68.7851)" class="st5 st4">Upfront Costs</text>
<text transform="matrix(1 0 0 1 123.8181 109.6283)" class="st5 st4">Production Time</text>
<text transform="matrix(1 0 0 1 123.8181 150.4716)" class="st5 st4">Flexibility</text>
<text transform="matrix(1 0 0 1 123.8181 191.3148)" class="st5 st4">Waste</text>
<text transform="matrix(1 0 0 1 123.8181 232.1572)" class="st5 st4">Scalability</text>
<text transform="matrix(1 0 0 1 461.2371 24.2963)" class="st2 st3 st4">Traditional Manufacturing</text>
<text transform="matrix(1 0 0 1 461.2371 68.7851)" class="st5 st4">High (Tooling, Setup)</text>
<text transform="matrix(1 0 0 1 461.2371 109.6281)" class="st5 st4">Weeks to Months</text>
<text transform="matrix(1 0 0 1 461.2371 150.4711)" class="st5 st4">Limited</text>
<text transform="matrix(1 0 0 1 461.2371 191.3145)" class="st5 st4">High (Excess Inventory)</text>
<text transform="matrix(1 0 0 1 461.2371 232.1572)" class="st5 st4">Best for Mass Production</text>
<text transform="matrix(1 0 0 1 827.4612 24.2963)" class="st2 st3 st4">On-Demand Manufacturing</text>
<text transform="matrix(1 0 0 1 827.4612 68.7851)" class="st5 st4">Low (Minimal Setup)</text>
<text transform="matrix(1 0 0 1 827.4612 109.6281)" class="st5 st4">Days to Weeks</text>
<text transform="matrix(1 0 0 1 827.4612 150.4711)" class="st5 st4">Highly Customizable</text>
<text transform="matrix(1 0 0 1 827.4612 191.3145)" class="st5 st4">Low (Production on Demand)</text>
<text transform="matrix(1 0 0 1 827.4612 232.1572)" class="st5 st4">Ideal for Low-to-Mid Volume</text>
<rect y="0" class="st6" width="1180" height="248.3"/>
</svg>
